<svg width="36" height="36" viewBox="0 0 36 36" fill="none" xmlns="http://www.w3.org/2000/svg">
<path d="M18 2C22.3472 2 22.8896 2.016 24.5952 2.096C26.2992 2.176 27.4592 2.4432 28.48 2.84C29.536 3.2464 30.4256 3.7968 31.3152 4.6848C32.1288 5.48463 32.7583 6.45214 33.16 7.52C33.5552 8.5392 33.824 9.7008 33.904 11.4048C33.9792 13.1104 34 13.6528 34 18C34 22.3472 33.984 22.8896 33.904 24.5952C33.824 26.2992 33.5552 27.4592 33.16 28.48C32.7595 29.5484 32.1298 30.5162 31.3152 31.3152C30.5151 32.1285 29.5477 32.758 28.48 33.16C27.4608 33.5552 26.2992 33.824 24.5952 33.904C22.8896 33.9792 22.3472 34 18 34C13.6528 34 13.1104 33.984 11.4048 33.904C9.7008 33.824 8.5408 33.5552 7.52 33.16C6.45172 32.7592 5.48404 32.1295 4.6848 31.3152C3.87105 30.5155 3.24149 29.548 2.84 28.48C2.4432 27.4608 2.176 26.2992 2.096 24.5952C2.0208 22.8896 2 22.3472 2 18C2 13.6528 2.016 13.1104 2.096 11.4048C2.176 9.6992 2.4432 8.5408 2.84 7.52C3.24038 6.45149 3.87009 5.48371 4.6848 4.6848C5.48427 3.87077 6.45189 3.24117 7.52 2.84C8.5408 2.4432 9.6992 2.176 11.4048 2.096C13.1104 2.0208 13.6528 2 18 2ZM18 10C15.8783 10 13.8434 10.8429 12.3431 12.3431C10.8429 13.8434 10 15.8783 10 18C10 20.1217 10.8429 22.1566 12.3431 23.6569C13.8434 25.1571 15.8783 26 18 26C20.1217 26 22.1566 25.1571 23.6569 23.6569C25.1571 22.1566 26 20.1217 26 18C26 15.8783 25.1571 13.8434 23.6569 12.3431C22.1566 10.8429 20.1217 10 18 10V10ZM28.4 9.6C28.4 9.06957 28.1893 8.56086 27.8142 8.18579C27.4391 7.81071 26.9304 7.6 26.4 7.6C25.8696 7.6 25.3609 7.81071 24.9858 8.18579C24.6107 8.56086 24.4 9.06957 24.4 9.6C24.4 10.1304 24.6107 10.6391 24.9858 11.0142C25.3609 11.3893 25.8696 11.6 26.4 11.6C26.9304 11.6 27.4391 11.3893 27.8142 11.0142C28.1893 10.6391 28.4 10.1304 28.4 9.6ZM18 13.2C19.273 13.2 20.4939 13.7057 21.3941 14.6059C22.2943 15.5061 22.8 16.727 22.8 18C22.8 19.273 22.2943 20.4939 21.3941 21.3941C20.4939 22.2943 19.273 22.8 18 22.8C16.727 22.8 15.5061 22.2943 14.6059 21.3941C13.7057 20.4939 13.2 19.273 13.2 18C13.2 16.727 13.7057 15.5061 14.6059 14.6059C15.5061 13.7057 16.727 13.2 18 13.2V13.2Z" fill="#DB2C6E"/>
</svg>
