<svg width="36" height="36" viewBox="0 0 36 36" fill="none" xmlns="http://www.w3.org/2000/svg">
<path d="M18 33.75C9.30128 33.75 2.25 26.6987 2.25 18C2.25 9.30128 9.30128 2.25 18 2.25C26.6987 2.25 33.75 9.30128 33.75 18C33.75 26.6987 26.6987 33.75 18 33.75ZM13.1018 19.8428L13.1222 19.8317L14.4925 24.352C14.6689 24.8418 14.9114 24.93 15.2059 24.889C15.502 24.8497 15.658 24.6906 15.8517 24.5047L17.7228 22.6967L21.739 25.6703C22.473 26.075 23.0006 25.8656 23.1833 24.9899L25.7931 12.6702C26.0813 11.5236 25.5773 11.0637 24.6874 11.4291L9.35797 17.3511C8.31217 17.7701 8.31848 18.3559 9.16898 18.6158L13.1018 19.8443V19.8428Z" fill="#269ACC"/>
</svg>
