<svg width="36" height="36" viewBox="0 0 36 36" fill="none" xmlns="http://www.w3.org/2000/svg">
<rect x="2" y="2" width="32" height="32" rx="8" fill="#282828"/>
<path d="M26 16.2816C25.8476 16.2964 25.6937 16.3032 25.5413 16.3045C24.7116 16.3055 23.8947 16.1075 23.1644 15.7282C22.4341 15.349 21.8134 14.8005 21.3584 14.1323V21.5297C21.3587 22.6115 21.0258 23.669 20.4019 24.5686C19.778 25.4682 18.891 26.1693 17.8532 26.5834C16.8154 26.9975 15.6734 27.106 14.5716 26.895C13.4698 26.684 12.4577 26.1631 11.6634 25.3982C10.8691 24.6333 10.3281 23.6587 10.1091 22.5977C9.88997 21.5367 10.0026 20.4369 10.4326 19.4375C10.8626 18.4382 11.5907 17.5841 12.5249 16.9832C13.459 16.3824 14.5573 16.0618 15.6806 16.0621C15.7995 16.0621 15.9142 16.0729 16.0316 16.0796V18.773C15.6404 18.7274 15.2436 18.7593 14.8656 18.8667C14.4876 18.9742 14.1364 19.155 13.8336 19.3979C13.5308 19.6409 13.2828 19.9409 13.1048 20.2795C12.9269 20.6182 12.8227 20.9883 12.7987 21.3671C12.7748 21.746 12.8315 22.1255 12.9654 22.4825C13.0994 22.8394 13.3077 23.1662 13.5776 23.4428C13.8475 23.7193 14.1733 23.9398 14.535 24.0907C14.8966 24.2416 15.2865 24.3196 15.6806 24.3201C16.4584 24.3336 17.2107 24.0527 17.7756 23.5377C18.3405 23.0226 18.6729 22.3147 18.7013 21.5661L18.7293 9H21.406C21.5282 10.1197 22.0553 11.1624 22.8951 11.9458C23.7349 12.7291 24.8339 13.2032 26 13.2852V16.2816Z" fill="#FFF2D6"/>
</svg>
