<svg width="36" height="37" viewBox="0 0 36 37" fill="none" xmlns="http://www.w3.org/2000/svg">
<path fill-rule="evenodd" clip-rule="evenodd" d="M29.7276 5.17298C28.9453 4.45465 25.5686 2.31039 18.5231 2.27933C18.5231 2.27933 10.1801 1.72534 6.13012 5.43275C3.87604 7.68204 3.11667 11.0269 3.03341 15.1087C3.03065 15.2444 3.0275 15.3841 3.02426 15.5276C2.93012 19.7025 2.76428 27.0572 9.9063 29.0625C9.9063 29.0625 9.87724 34.8515 9.87389 35.3603C9.87389 35.7161 9.92976 35.9595 10.1309 36.0097C10.2756 36.0453 10.4924 35.9696 10.6768 35.7838C11.8581 34.5849 15.6398 29.974 15.6398 29.974C20.714 30.3088 24.7512 29.2963 25.1853 29.1529C25.2875 29.1196 25.4348 29.085 25.6179 29.0418C27.2689 28.6528 31.8394 27.5758 32.6829 20.6899C33.6513 12.8047 32.327 7.42227 29.7276 5.17298ZM18.8188 11.8067C18.8324 11.5441 19.054 11.3423 19.3138 11.356C20.2858 11.4073 21.0944 11.7046 21.6704 12.3065C22.2442 12.906 22.5254 13.7436 22.5748 14.7495C22.5877 15.0121 22.3875 15.2356 22.1276 15.2486C21.8678 15.2616 21.6467 15.0593 21.6338 14.7967C21.5916 13.9356 21.3578 13.3494 20.9932 12.9684C20.6308 12.5897 20.0778 12.3497 19.2647 12.3069C19.0049 12.2932 18.8053 12.0692 18.8188 11.8067ZM18.607 8.8011C18.3476 8.78191 18.1218 8.97892 18.1028 9.24114C18.0838 9.50336 18.2788 9.73149 18.5382 9.75068C20.3317 9.88334 21.6787 10.49 22.6422 11.5529C23.6087 12.6203 24.083 13.9507 24.0481 15.5809C24.0425 15.8438 24.2488 16.0615 24.5089 16.0671C24.769 16.0728 24.9844 15.8644 24.99 15.6015C25.0296 13.753 24.4844 12.177 23.3372 10.9101L23.337 10.9099C22.1773 9.63049 20.5851 8.94741 18.607 8.8011ZM17.2733 6.80362C17.2751 6.5407 17.4875 6.32905 17.7476 6.33088C20.4812 6.35013 22.7919 7.26987 24.6471 9.09766C26.5178 10.9407 27.4429 13.4499 27.4664 16.5663C27.4684 16.8292 27.2591 17.0439 26.9989 17.0459C26.7388 17.0479 26.5263 16.8364 26.5243 16.5735C26.5023 13.6533 25.6427 11.4083 23.9895 9.77944C22.3207 8.1353 20.2487 7.30064 17.7411 7.28299C17.4809 7.28115 17.2715 7.06653 17.2733 6.80362ZM20.402 20.7627C20.0455 21.2066 19.3834 21.1501 19.3834 21.1501C14.5439 19.9015 13.2487 14.9472 13.2487 14.9472C13.2487 14.9472 13.1905 14.278 13.632 13.9177L14.5065 13.2151C14.9401 12.8774 15.2167 12.058 14.7752 11.2578C14.4366 10.6571 14.0685 10.074 13.6722 9.51056C13.2872 8.97915 12.3904 7.89093 12.387 7.88754C11.9545 7.37195 11.3187 7.25222 10.6481 7.60518C10.6461 7.60518 10.6433 7.60609 10.6406 7.60697C10.6382 7.60778 10.6358 7.60857 10.6342 7.60857C9.96727 7.99691 9.36593 8.49028 8.85281 9.07007C8.85106 9.07361 8.84931 9.0753 8.84756 9.07699C8.84596 9.07854 8.84435 9.08009 8.84275 9.08306C8.42851 9.5883 8.19141 10.0836 8.13144 10.5688C8.11898 10.6404 8.11467 10.7132 8.11858 10.7857C8.11636 11 8.14863 11.2132 8.21413 11.4171L8.23704 11.4329C8.44602 12.1828 8.96903 13.432 10.1056 15.5147C10.7557 16.7193 11.5054 17.8662 12.3468 18.9431C12.7684 19.483 13.2202 19.9979 13.7001 20.4854C13.7059 20.4912 13.7116 20.4971 13.7173 20.5029C13.7287 20.5145 13.74 20.5261 13.7516 20.5374L13.803 20.5893L13.8544 20.6413L13.9058 20.6932C14.3881 21.1783 14.8976 21.6349 15.4318 22.061C16.4974 22.9115 17.6324 23.6692 18.8246 24.3261C20.8848 25.4747 22.1219 26.0033 22.8629 26.2145L22.8785 26.2377C23.0802 26.3041 23.2912 26.3369 23.5032 26.3348C23.575 26.3383 23.647 26.3338 23.7178 26.3213C24.1987 26.2637 24.6884 26.0244 25.1868 25.6035C25.1929 25.6001 25.1929 25.5967 25.1997 25.5933C25.7733 25.0746 26.2617 24.4669 26.6463 23.793C26.6463 23.7914 26.647 23.789 26.6476 23.7864C26.6484 23.7837 26.6491 23.7809 26.6491 23.7789C26.9983 23.1012 26.8799 22.4585 26.3669 22.0209C26.3663 22.0209 26.3244 21.986 26.2536 21.9271C25.9629 21.685 25.1838 21.0363 24.761 20.722C24.2041 20.3215 23.6276 19.9495 23.0339 19.6073C22.2415 19.1611 21.4324 19.4407 21.0972 19.8789L20.402 20.7627Z" fill="#7C4D9C"/>
</svg>
